<svg width="24" height="24" viewBox="0 0 24 24" fill="none" xmlns="http://www.w3.org/2000/svg">
<g clip-path="url(#clip0_1_674)">
<path d="M11.9968 5.84284C8.58953 5.84284 5.83973 8.59269 5.83973 12C5.83973 15.4073 8.58953 18.1572 11.9968 18.1572C15.404 18.1572 18.1539 15.4073 18.1539 12C18.1539 8.59269 15.404 5.84284 11.9968 5.84284ZM11.9968 16.0017C9.79333 16.0017 7.99515 14.2035 7.99515 12C7.99515 9.79651 9.79333 7.99829 11.9968 7.99829C14.2003 7.99829 15.9984 9.79651 15.9984 12C15.9984 14.2035 14.2003 16.0017 11.9968 16.0017ZM18.406 4.15569C17.6104 4.15569 16.968 4.79813 16.968 5.59368C16.968 6.38921 17.6104 7.03164 18.406 7.03164C19.2015 7.03164 19.8439 6.39221 19.8439 5.59368C19.8444 5.21216 19.6931 4.84612 19.4233 4.57635C19.1535 4.30656 18.7875 4.15521 18.406 4.15569ZM23.9987 12C23.9987 10.3429 24.0137 8.70077 23.9207 7.04665C23.8276 5.12536 23.3892 3.4202 21.9844 2.01525C20.5764 0.607304 18.8743 0.172007 16.9531 0.0789439C15.296 -0.0141191 13.6539 0.000893255 11.9998 0.000893255C10.3427 0.000893255 8.70061 -0.0141191 7.04652 0.0789439C5.12525 0.172007 3.42013 0.610305 2.01521 2.01525C0.607288 3.4232 0.172008 5.12536 0.0789467 7.04665C-0.0141145 8.70377 0.000892486 10.3459 0.000892486 12C0.000892486 13.6541 -0.0141145 15.2992 0.0789467 16.9533C0.172008 18.8747 0.610291 20.5797 2.01521 21.9848C3.42313 23.3927 5.12525 23.828 7.04652 23.9211C8.70361 24.0141 10.3457 23.9991 11.9998 23.9991C13.6568 23.9991 15.2989 24.0141 16.9531 23.9211C18.8743 23.828 20.5795 23.3897 21.9844 21.9848C23.3923 20.5768 23.8276 18.8747 23.9207 16.9533C24.0167 15.2992 23.9987 13.6571 23.9987 12ZM21.3569 19.0788C21.1377 19.6252 20.8736 20.0335 20.4503 20.4537C20.0271 20.8769 19.6217 21.1412 19.0755 21.3603C17.4964 21.9877 13.7469 21.8467 11.9968 21.8467C10.2466 21.8467 6.49416 21.9877 4.91512 21.3633C4.36876 21.1441 3.96049 20.88 3.54021 20.4567C3.11695 20.0335 2.85276 19.6281 2.63361 19.0817C2.00921 17.4997 2.15031 13.7501 2.15031 12C2.15031 10.2498 2.00921 6.49728 2.63361 4.91821C2.85276 4.37184 3.11695 3.96357 3.54021 3.54328C3.96349 3.123 4.36876 2.85583 4.91512 2.63668C6.49416 2.01225 10.2466 2.15335 11.9968 2.15335C13.7469 2.15335 17.4993 2.01225 19.0784 2.63668C19.6248 2.85583 20.0331 3.12 20.4533 3.54328C20.8767 3.96657 21.1408 4.37184 21.3599 4.91821C21.9844 6.49728 21.8432 10.2498 21.8432 12C21.8432 13.7501 21.9844 17.4997 21.3569 19.0788Z" fill="white"/>
</g>
<defs>
<clipPath id="clip0_1_674">
<rect width="24" height="24" fill="white"/>
</clipPath>
</defs>
</svg>
