<svg width="24" height="21" viewBox="0 0 24 21" fill="none" xmlns="http://www.w3.org/2000/svg">
<path d="M22.7068 4.82754C22.8609 4.31484 22.7068 3.9375 21.9651 3.9375H19.5109C18.8859 3.9375 18.5984 4.26152 18.4443 4.62246C18.4443 4.62246 17.1943 7.6207 15.4276 9.56484C14.8568 10.1268 14.5943 10.3072 14.2818 10.3072C14.1276 10.3072 13.8901 10.1268 13.8901 9.61406V4.82754C13.8901 4.2123 13.7151 3.9375 13.1984 3.9375H9.34011C8.94844 3.9375 8.71511 4.22461 8.71511 4.49121C8.71511 5.07363 9.59844 5.20898 9.69011 6.84961V10.4098C9.69011 11.1891 9.54844 11.3326 9.23594 11.3326C8.40261 11.3326 6.37761 8.32207 5.17761 4.87676C4.93594 4.2082 4.69844 3.9375 4.06927 3.9375H1.6151C0.915104 3.9375 0.773438 4.26152 0.773438 4.62246C0.773438 5.2623 1.60677 8.44102 4.65261 12.641C6.68177 15.508 9.54011 17.0625 12.1401 17.0625C13.7026 17.0625 13.8943 16.718 13.8943 16.1232C13.8943 13.3834 13.7526 13.125 14.5359 13.125C14.8984 13.125 15.5234 13.3055 16.9818 14.6877C18.6484 16.3283 18.9234 17.0625 19.8568 17.0625H22.3109C23.0109 17.0625 23.3651 16.718 23.1609 16.0371C22.6943 14.6057 19.5401 11.6607 19.3984 11.4639C19.0359 11.0045 19.1401 10.7994 19.3984 10.3893C19.4026 10.3852 22.3984 6.23437 22.7068 4.82754V4.82754Z" fill="white"/>
</svg>
